<svg width="65" height="65" viewBox="0 0 65 65" fill="none" xmlns="http://www.w3.org/2000/svg">
<g clip-path="url(#clip0_4_5)">
<g filter="url(#filter0_d_4_5)">
<path d="M24.375 27.0833H27.0833C27.8016 27.0833 28.4905 26.798 28.9984 26.2901C29.5063 25.7822 29.7917 25.0933 29.7917 24.375C29.7917 23.6567 29.5063 22.9678 28.9984 22.4599C28.4905 21.952 27.8016 21.6667 27.0833 21.6667H24.375C23.6567 21.6667 22.9678 21.952 22.4599 22.4599C21.952 22.9678 21.6667 23.6567 21.6667 24.375C21.6667 25.0933 21.952 25.7822 22.4599 26.2901C22.9678 26.798 23.6567 27.0833 24.375 27.0833ZM40.625 32.5H24.375C23.6567 32.5 22.9678 32.7853 22.4599 33.2932C21.952 33.8012 21.6667 34.49 21.6667 35.2083C21.6667 35.9266 21.952 36.6155 22.4599 37.1234C22.9678 37.6313 23.6567 37.9167 24.375 37.9167H40.625C41.3433 37.9167 42.0322 37.6313 42.5401 37.1234C43.048 36.6155 43.3333 35.9266 43.3333 35.2083C43.3333 34.49 43.048 33.8012 42.5401 33.2932C42.0322 32.7853 41.3433 32.5 40.625 32.5ZM40.625 43.3333H24.375C23.6567 43.3333 22.9678 43.6187 22.4599 44.1266C21.952 44.6345 21.6667 45.3234 21.6667 46.0417C21.6667 46.7599 21.952 47.4488 22.4599 47.9567C22.9678 48.4646 23.6567 48.75 24.375 48.75H40.625C41.3433 48.75 42.0322 48.4646 42.5401 47.9567C43.048 47.4488 43.3333 46.7599 43.3333 46.0417C43.3333 45.3234 43.048 44.6345 42.5401 44.1266C42.0322 43.6187 41.3433 43.3333 40.625 43.3333ZM53.3812 54.9521C53.2525 54.8356 53.1169 54.7271 52.975 54.6271C52.824 54.5246 52.6601 54.4426 52.4875 54.3833L52 54.1667C51.4719 54.0636 50.925 54.1201 50.4292 54.3292C50.0931 54.4508 49.7878 54.6449 49.5351 54.8976C49.2824 55.1503 49.0883 55.4556 48.9667 55.7917C48.8065 56.1295 48.7321 56.5016 48.75 56.875C48.7453 57.2779 48.8305 57.6768 48.9994 58.0426C49.1684 58.4084 49.4169 58.7318 49.7267 58.9894C50.0366 59.247 50.4 59.4322 50.7905 59.5316C51.181 59.6309 51.5887 59.6419 51.984 59.5636C52.3792 59.4854 52.7521 59.32 53.0753 59.0794C53.3985 58.8388 53.664 58.5291 53.8523 58.1729C54.0407 57.8167 54.1472 57.423 54.1641 57.0204C54.181 56.6178 54.1078 56.2165 53.95 55.8458C53.8128 55.5176 53.6205 55.2153 53.3812 54.9521ZM54.1667 24.2125C54.1384 23.9637 54.084 23.7186 54.0042 23.4812V23.2375C53.8739 22.959 53.7002 22.703 53.4896 22.4792L37.2396 6.22916C37.0157 6.01849 36.7597 5.84479 36.4812 5.71457C36.4004 5.70309 36.3183 5.70309 36.2375 5.71457C35.9624 5.55679 35.6585 5.45551 35.3437 5.41666H18.9583C16.8034 5.41666 14.7368 6.27268 13.2131 7.79641C11.6894 9.32015 10.8333 11.3868 10.8333 13.5417V51.4583C10.8333 53.6132 11.6894 55.6798 13.2131 57.2036C14.7368 58.7273 16.8034 59.5833 18.9583 59.5833H40.625C41.3433 59.5833 42.0322 59.298 42.5401 58.7901C43.048 58.2822 43.3333 57.5933 43.3333 56.875C43.3333 56.1567 43.048 55.4678 42.5401 54.9599C42.0322 54.452 41.3433 54.1667 40.625 54.1667H18.9583C18.24 54.1667 17.5512 53.8813 17.0432 53.3734C16.5353 52.8655 16.25 52.1766 16.25 51.4583V13.5417C16.25 12.8234 16.5353 12.1345 17.0432 11.6266C17.5512 11.1187 18.24 10.8333 18.9583 10.8333H32.5V18.9583C32.5 21.1132 33.356 23.1798 34.8798 24.7036C36.4035 26.2273 38.4701 27.0833 40.625 27.0833H48.75V32.5C48.75 33.2183 49.0353 33.9072 49.5432 34.4151C50.0512 34.923 50.74 35.2083 51.4583 35.2083C52.1766 35.2083 52.8655 34.923 53.3734 34.4151C53.8813 33.9072 54.1667 33.2183 54.1667 32.5V24.375C54.1667 24.375 54.1667 24.375 54.1667 24.2125ZM40.625 21.6667C39.9067 21.6667 39.2178 21.3813 38.7099 20.8734C38.202 20.3655 37.9167 19.6766 37.9167 18.9583V14.6521L44.9312 21.6667H40.625ZM51.4583 40.625C50.74 40.625 50.0512 40.9103 49.5432 41.4182C49.0353 41.9262 48.75 42.615 48.75 43.3333V48.75C48.75 49.4683 49.0353 50.1572 49.5432 50.6651C50.0512 51.173 50.74 51.4583 51.4583 51.4583C52.1766 51.4583 52.8655 51.173 53.3734 50.6651C53.8813 50.1572 54.1667 49.4683 54.1667 48.75V43.3333C54.1667 42.615 53.8813 41.9262 53.3734 41.4182C52.8655 40.9103 52.1766 40.625 51.4583 40.625Z" fill="#83A1CD"/>
</g>
</g>
<defs>
<filter id="filter0_d_4_5" x="6.83333" y="5.41666" width="51.3333" height="62.1985" filterUnits="userSpaceOnUse" color-interpolation-filters="sRGB">
<feFlood flood-opacity="0" result="BackgroundImageFix"/>
<feColorMatrix in="SourceAlpha" type="matrix" values="0 0 0 0 0 0 0 0 0 0 0 0 0 0 0 0 0 0 127 0" result="hardAlpha"/>
<feOffset dy="4"/>
<feGaussianBlur stdDeviation="2"/>
<feComposite in2="hardAlpha" operator="out"/>
<feColorMatrix type="matrix" values="0 0 0 0 0 0 0 0 0 0 0 0 0 0 0 0 0 0 0.25 0"/>
<feBlend mode="normal" in2="BackgroundImageFix" result="effect1_dropShadow_4_5"/>
<feBlend mode="normal" in="SourceGraphic" in2="effect1_dropShadow_4_5" result="shape"/>
</filter>
<clipPath id="clip0_4_5">
<rect width="65" height="65" fill="white"/>
</clipPath>
</defs>
</svg>
