<svg width="65" height="65" viewBox="0 0 65 65" fill="none" xmlns="http://www.w3.org/2000/svg">
<path d="M51.4583 14.8958H34.45L33.5833 12.1875C33.0215 10.5983 31.9793 9.22325 30.6012 8.25274C29.2231 7.28223 27.5772 6.76435 25.8917 6.77084H13.5417C11.3868 6.77084 9.32016 7.62687 7.79643 9.1506C6.2727 10.6743 5.41667 12.741 5.41667 14.8958V50.1042C5.41667 52.2591 6.2727 54.3257 7.79643 55.8494C9.32016 57.3732 11.3868 58.2292 13.5417 58.2292H51.4583C53.6132 58.2292 55.6799 57.3732 57.2036 55.8494C58.7273 54.3257 59.5833 52.2591 59.5833 50.1042V23.0208C59.5833 20.866 58.7273 18.7993 57.2036 17.2756C55.6799 15.7519 53.6132 14.8958 51.4583 14.8958ZM54.1667 50.1042C54.1667 50.8225 53.8813 51.5114 53.3734 52.0193C52.8655 52.5272 52.1766 52.8125 51.4583 52.8125H13.5417C12.8234 52.8125 12.1345 52.5272 11.6266 52.0193C11.1187 51.5114 10.8333 50.8225 10.8333 50.1042V14.8958C10.8333 14.1775 11.1187 13.4887 11.6266 12.9808C12.1345 12.4729 12.8234 12.1875 13.5417 12.1875H25.8917C26.4595 12.186 27.0133 12.3631 27.475 12.6935C27.9367 13.024 28.2829 13.4912 28.4646 14.0292L29.9271 18.4708C30.1088 19.0088 30.4549 19.476 30.9166 19.8065C31.3783 20.137 31.9322 20.314 32.5 20.3125H51.4583C52.1766 20.3125 52.8655 20.5979 53.3734 21.1058C53.8813 21.6137 54.1667 22.3025 54.1667 23.0208V50.1042Z" fill="#7A95BC"/>
</svg>
