<svg xmlns="http://www.w3.org/2000/svg" version="1.1" xmlns:xlink="http://www.w3.org/1999/xlink" xmlns:svgjs="http://svgjs.dev/svgjs" viewBox="0 0 6.550725836376721 2.022663914061389"><g transform="matrix(1,0,0,1,1.7041639206507422,0.31987641239791154)"><g><path d=" M 0.45 1.1249999999999998 Q 0.34500000000000003 1.1249999999999998 0.261 1.09875 Q 0.177 1.0724999999999998 0.1005 1.0065 Q 0.081 0.9899999999999999 0.07050000000000001 0.9689999999999999 Q 0.06 0.9479999999999998 0.06 0.9269999999999998 Q 0.06 0.8924999999999998 0.08475 0.8662499999999999 Q 0.1095 0.8399999999999999 0.147 0.8399999999999999 Q 0.17550000000000002 0.8399999999999999 0.198 0.8579999999999999 Q 0.255 0.9044999999999999 0.31125 0.9284999999999999 Q 0.3675 0.9524999999999999 0.45 0.9524999999999999 Q 0.5055000000000001 0.9524999999999999 0.552 0.9352499999999999 Q 0.5985 0.9179999999999999 0.627 0.8887499999999999 Q 0.6555 0.8594999999999999 0.6555 0.8219999999999998 Q 0.6555 0.7769999999999999 0.6285000000000001 0.7454999999999998 Q 0.6015 0.7139999999999999 0.546 0.6922499999999998 Q 0.4905 0.6704999999999999 0.405 0.6584999999999999 Q 0.324 0.6464999999999999 0.2625 0.6217499999999998 Q 0.201 0.5969999999999999 0.15975 0.5587499999999999 Q 0.11850000000000001 0.5204999999999999 0.0975 0.4687499999999999 Q 0.0765 0.4169999999999998 0.0765 0.3524999999999998 Q 0.0765 0.2549999999999999 0.12675 0.18599999999999983 Q 0.177 0.11699999999999988 0.2625 0.08099999999999996 Q 0.34800000000000003 0.04499999999999993 0.4515 0.04499999999999993 Q 0.549 0.04499999999999993 0.63225 0.07424999999999993 Q 0.7155 0.10349999999999993 0.768 0.14849999999999985 Q 0.8115 0.18299999999999983 0.8115 0.22799999999999987 Q 0.8115 0.2609999999999999 0.786 0.2879999999999998 Q 0.7605000000000001 0.31499999999999984 0.726 0.31499999999999984 Q 0.7035 0.31499999999999984 0.6855 0.3014999999999999 Q 0.6615 0.28049999999999986 0.621 0.2617499999999998 Q 0.5805 0.24299999999999988 0.5355 0.23024999999999984 Q 0.4905 0.2174999999999998 0.4515 0.2174999999999998 Q 0.387 0.2174999999999998 0.34275 0.23399999999999987 Q 0.2985 0.25049999999999983 0.276 0.2789999999999998 Q 0.2535 0.3074999999999999 0.2535 0.34499999999999986 Q 0.2535 0.3899999999999999 0.27975 0.4192499999999999 Q 0.306 0.4484999999999999 0.3555 0.4657499999999999 Q 0.405 0.4829999999999999 0.47400000000000003 0.49649999999999983 Q 0.5640000000000001 0.5129999999999999 0.63225 0.5354999999999999 Q 0.7005 0.5579999999999998 0.7455 0.5932499999999998 Q 0.7905 0.6284999999999998 0.8130000000000001 0.6817499999999999 Q 0.8355 0.7349999999999999 0.8355 0.8114999999999999 Q 0.8355 0.9089999999999998 0.7815 0.9794999999999998 Q 0.7275 1.0499999999999998 0.63975 1.0875 Q 0.552 1.1249999999999998 0.45 1.1249999999999998 Z M 1.423477294921875 0.29249999999999987 Q 1.528477294921875 0.29249999999999987 1.611727294921875 0.3457499999999999 Q 1.694977294921875 0.3989999999999999 1.7437272949218752 0.4919999999999999 Q 1.792477294921875 0.5849999999999999 1.792477294921875 0.7079999999999999 Q 1.792477294921875 0.8309999999999998 1.7437272949218752 0.9247499999999998 Q 1.694977294921875 1.0185 1.613227294921875 1.07175 Q 1.5314772949218751 1.1249999999999998 1.429477294921875 1.1249999999999998 Q 1.369477294921875 1.1249999999999998 1.316977294921875 1.1055 Q 1.264477294921875 1.0859999999999999 1.224727294921875 1.0559999999999998 Q 1.184977294921875 1.0259999999999998 1.163227294921875 0.9952499999999999 Q 1.141477294921875 0.9644999999999999 1.141477294921875 0.9434999999999999 L 1.187977294921875 0.9239999999999999 L 1.187977294921875 1.3184999999999998 Q 1.187977294921875 1.3575 1.162477294921875 1.3837499999999998 Q 1.136977294921875 1.41 1.0979772949218751 1.41 Q 1.058977294921875 1.41 1.033477294921875 1.3844999999999998 Q 1.007977294921875 1.359 1.007977294921875 1.3184999999999998 L 1.007977294921875 0.3989999999999999 Q 1.007977294921875 0.3599999999999999 1.033477294921875 0.3337499999999999 Q 1.058977294921875 0.3074999999999999 1.0979772949218751 0.3074999999999999 Q 1.136977294921875 0.3074999999999999 1.162477294921875 0.3337499999999999 Q 1.187977294921875 0.3599999999999999 1.187977294921875 0.3989999999999999 L 1.187977294921875 0.4724999999999998 L 1.162477294921875 0.45899999999999985 Q 1.162477294921875 0.4394999999999999 1.183477294921875 0.41174999999999984 Q 1.204477294921875 0.3839999999999999 1.240477294921875 0.35624999999999984 Q 1.276477294921875 0.3284999999999999 1.323727294921875 0.3104999999999999 Q 1.370977294921875 0.29249999999999987 1.423477294921875 0.29249999999999987 Z M 1.400977294921875 0.4574999999999999 Q 1.334977294921875 0.4574999999999999 1.2854772949218751 0.4904999999999998 Q 1.235977294921875 0.5234999999999999 1.208227294921875 0.5797499999999999 Q 1.1804772949218751 0.6359999999999999 1.1804772949218751 0.7079999999999999 Q 1.1804772949218751 0.7784999999999999 1.208227294921875 0.8362499999999999 Q 1.235977294921875 0.8939999999999999 1.2854772949218751 0.9269999999999998 Q 1.334977294921875 0.9599999999999999 1.400977294921875 0.9599999999999999 Q 1.466977294921875 0.9599999999999999 1.515727294921875 0.9269999999999998 Q 1.564477294921875 0.8939999999999999 1.592227294921875 0.8362499999999999 Q 1.619977294921875 0.7784999999999999 1.619977294921875 0.7079999999999999 Q 1.619977294921875 0.6359999999999999 1.592227294921875 0.5797499999999999 Q 1.564477294921875 0.5234999999999999 1.515727294921875 0.4904999999999998 Q 1.466977294921875 0.4574999999999999 1.400977294921875 0.4574999999999999 Z M 2.3279560546875 1.1249999999999998 Q 2.2004560546875 1.1249999999999998 2.1067060546875 1.07175 Q 2.0129560546875 1.0185 1.9627060546875001 0.9269999999999998 Q 1.9124560546875 0.8354999999999999 1.9124560546875 0.7199999999999999 Q 1.9124560546875 0.5849999999999999 1.9672060546875 0.4897499999999999 Q 2.0219560546875 0.39449999999999985 2.1104560546875 0.3434999999999998 Q 2.1989560546875 0.29249999999999987 2.2979560546875 0.29249999999999987 Q 2.3744560546875 0.29249999999999987 2.4427060546875 0.32399999999999984 Q 2.5109560546875 0.3554999999999998 2.5634560546875003 0.4102499999999999 Q 2.6159560546875 0.46499999999999986 2.6467060546875 0.5369999999999998 Q 2.6774560546875 0.6089999999999999 2.6774560546875 0.69 Q 2.6759560546875 0.7259999999999999 2.6489560546875 0.7484999999999999 Q 2.6219560546875 0.7709999999999999 2.5859560546875002 0.7709999999999999 L 2.0129560546875 0.7709999999999999 L 1.9679560546875001 0.6209999999999999 L 2.5184560546875 0.6209999999999999 L 2.4854560546875 0.6509999999999998 L 2.4854560546875 0.6104999999999998 Q 2.4824560546875 0.5669999999999998 2.4547060546875 0.5324999999999999 Q 2.4269560546875 0.4979999999999999 2.3857060546875 0.4777499999999999 Q 2.3444560546875 0.4574999999999999 2.2979560546875 0.4574999999999999 Q 2.2529560546875 0.4574999999999999 2.2139560546875 0.4694999999999999 Q 2.1749560546875 0.4814999999999998 2.1464560546875 0.5099999999999999 Q 2.1179560546875003 0.5384999999999999 2.1014560546875 0.5864999999999999 Q 2.0849560546875 0.6344999999999998 2.0849560546875 0.7079999999999999 Q 2.0849560546875 0.7889999999999999 2.1187060546875 0.8452499999999998 Q 2.1524560546875 0.9014999999999999 2.2057060546875 0.9307499999999999 Q 2.2589560546875003 0.9599999999999999 2.3189560546875 0.9599999999999999 Q 2.3744560546875 0.9599999999999999 2.4074560546875 0.9509999999999998 Q 2.4404560546875 0.9419999999999998 2.4607060546875 0.9292499999999999 Q 2.4809560546875 0.9164999999999999 2.4974560546875 0.9074999999999999 Q 2.5244560546875 0.8939999999999999 2.5484560546875 0.8939999999999999 Q 2.5814560546875 0.8939999999999999 2.6032060546875 0.9164999999999999 Q 2.6249560546875 0.9389999999999998 2.6249560546875 0.9689999999999999 Q 2.6249560546875 1.0094999999999998 2.5829560546875 1.0425 Q 2.5439560546875 1.0755 2.4734560546875 1.10025 Q 2.4029560546875 1.1249999999999998 2.3279560546875 1.1249999999999998 Z M 3.497841064453125 0.29249999999999987 Q 3.536841064453125 0.29249999999999987 3.562341064453125 0.31799999999999984 Q 3.5878410644531247 0.3434999999999998 3.5878410644531247 0.3839999999999999 L 3.5878410644531247 1.0185 Q 3.5878410644531247 1.0574999999999999 3.562341064453125 1.0837499999999998 Q 3.536841064453125 1.1099999999999999 3.497841064453125 1.1099999999999999 Q 3.458841064453125 1.1099999999999999 3.433341064453125 1.0837499999999998 Q 3.407841064453125 1.0574999999999999 3.407841064453125 1.0185 L 3.407841064453125 0.9449999999999998 L 3.440841064453125 0.9584999999999999 Q 3.440841064453125 0.9779999999999999 3.419841064453125 1.00575 Q 3.398841064453125 1.0334999999999999 3.362841064453125 1.0604999999999998 Q 3.326841064453125 1.0875 3.278091064453125 1.10625 Q 3.229341064453125 1.1249999999999998 3.172341064453125 1.1249999999999998 Q 3.068841064453125 1.1249999999999998 2.984841064453125 1.07175 Q 2.900841064453125 1.0185 2.8520910644531248 0.9247499999999998 Q 2.803341064453125 0.8309999999999998 2.803341064453125 0.7094999999999998 Q 2.803341064453125 0.5864999999999999 2.8520910644531248 0.4927499999999999 Q 2.900841064453125 0.3989999999999999 2.983341064453125 0.3457499999999999 Q 3.065841064453125 0.29249999999999987 3.166341064453125 0.29249999999999987 Q 3.230841064453125 0.29249999999999987 3.2848410644531247 0.31199999999999983 Q 3.338841064453125 0.3314999999999999 3.3785910644531247 0.3614999999999998 Q 3.418341064453125 0.39149999999999985 3.440091064453125 0.4222499999999999 Q 3.461841064453125 0.45299999999999985 3.461841064453125 0.47399999999999987 L 3.407841064453125 0.4934999999999998 L 3.407841064453125 0.3839999999999999 Q 3.407841064453125 0.34499999999999986 3.433341064453125 0.31874999999999987 Q 3.458841064453125 0.29249999999999987 3.497841064453125 0.29249999999999987 Z M 3.194841064453125 0.9599999999999999 Q 3.2608410644531247 0.9599999999999999 3.310341064453125 0.9269999999999998 Q 3.359841064453125 0.8939999999999999 3.387591064453125 0.8369999999999999 Q 3.415341064453125 0.7799999999999998 3.415341064453125 0.7094999999999998 Q 3.415341064453125 0.6374999999999998 3.387591064453125 0.5804999999999999 Q 3.359841064453125 0.5234999999999999 3.310341064453125 0.4904999999999998 Q 3.2608410644531247 0.4574999999999999 3.194841064453125 0.4574999999999999 Q 3.130341064453125 0.4574999999999999 3.080841064453125 0.4904999999999998 Q 3.031341064453125 0.5234999999999999 3.0035910644531247 0.5804999999999999 Q 2.975841064453125 0.6374999999999998 2.975841064453125 0.7094999999999998 Q 2.975841064453125 0.7799999999999998 3.0035910644531247 0.8369999999999999 Q 3.031341064453125 0.8939999999999999 3.080841064453125 0.9269999999999998 Q 3.130341064453125 0.9599999999999999 3.194841064453125 0.9599999999999999 Z M 3.90281982421875 1.1099999999999999 Q 3.86381982421875 1.1099999999999999 3.83831982421875 1.0837499999999998 Q 3.81281982421875 1.0574999999999999 3.81281982421875 1.0185 L 3.81281982421875 0.09149999999999991 Q 3.81281982421875 0.05249999999999977 3.83831982421875 0.026249999999999885 Q 3.86381982421875 -2.220446049250313e-16 3.90281982421875 -2.220446049250313e-16 Q 3.94181982421875 -2.220446049250313e-16 3.96731982421875 0.026249999999999885 Q 3.99281982421875 0.05249999999999977 3.99281982421875 0.09149999999999991 L 3.99281982421875 1.0185 Q 3.99281982421875 1.0574999999999999 3.96731982421875 1.0837499999999998 Q 3.94181982421875 1.1099999999999999 3.90281982421875 1.1099999999999999 Z M 4.37981982421875 0.3074999999999999 Q 4.41431982421875 0.3074999999999999 4.43981982421875 0.33599999999999985 Q 4.46531982421875 0.3644999999999998 4.46531982421875 0.39149999999999985 Q 4.46531982421875 0.4274999999999999 4.42931982421875 0.45899999999999985 L 3.97781982421875 0.8744999999999998 L 3.97031982421875 0.6674999999999999 L 4.31381982421875 0.33599999999999985 Q 4.34231982421875 0.3074999999999999 4.37981982421875 0.3074999999999999 Z M 4.4023198242187505 1.1084999999999998 Q 4.36331982421875 1.1084999999999998 4.33631982421875 1.0784999999999998 L 4.05881982421875 0.7844999999999999 L 4.19531982421875 0.6584999999999999 L 4.46531982421875 0.9524999999999999 Q 4.49381982421875 0.9824999999999999 4.49381982421875 1.0199999999999998 Q 4.49381982421875 1.059 4.46306982421875 1.0837499999999998 Q 4.43231982421875 1.1084999999999998 4.4023198242187505 1.1084999999999998 Z" fill="#102036" fill-rule="nonzero"></path></g><g></g><g clip-path="url(&quot;#SvgjsClipPath1018&quot;)"><g clip-path="url(&quot;#SvgjsClipPath1008&quot;)"><path d=" M -0.8969310424415997 -0.024430035401786433 L -0.6756938146367516 0.10372976993129499 C -0.6752285937516292 0.10372325403283852 -0.6747807544118393 0.10390634809548771 -0.674453348315893 0.1042369205946827 C -0.6741259422199468 0.10456749309387842 -0.6739471668296316 0.10501707386510664 -0.6739581599057182 0.10548221049144826 L -0.6528415868724482 0.11778622323658924 L -0.6528415868724482 0.11778622323658924 L -0.4088024887906574 0.25823325548569076 C -0.4037616349435831 0.26121318417027056 -0.40047713135131824 0.2664508725654028 -0.3999899285025281 0.2722863516251603 L -0.3999899285025281 0.8377337913697827 C -0.399945434631092 0.844661412406935 -0.4041325929488371 0.8509148741461784 -0.4105549293508113 0.8535124707428147 L -0.8969310424415997 1.1344367497334353 C -0.9028845590461734 1.1379905356368443 -0.9103080866519019 1.1379905356368443 -0.9162616032564754 1.1344367497334353 L -1.4026377163472643 0.8535091135769907 C -1.4081075224005002 0.8501369442134025 -1.4114224553477366 0.8441560671109031 -1.4113831333189129 0.8377304342039601 L -1.4113831333189129 0.27228299445933696 C -1.4109936896366233 0.2659745806361038 -1.4077808789851922 0.260177954892639 -1.4026377163472643 0.2565043150863064 L -1.1374820452322034 0.10548892482309633 L -1.1374820452322034 0.10548892482309633 L -0.914525948525442 -0.024433392567611182 C -0.9091956908741261 -0.02797517942150721 -0.9022613000929157 -0.02797517942150721 -0.8969310424415997 -0.024433392567611182 Z M -1.2235228481367626 0.5005870563238096 L -1.0444146942579091 0.6094196580078386 L -0.9443308667113517 0.553267702434791 L -1.1287131280997866 0.4461741126476184 Z M -1.0216161811467903 0.6375090644576596 L -1.0216161811467903 0.8605356616467261 L -0.9232512225021462 0.8025641221970431 L -0.9232512225021462 0.5796046683244573 Z M -1.0567019211739295 0.8798460794666576 L -1.0567019211739295 0.6568228394434152 L -1.1550668798185737 0.7130452954987689 L -1.1550668798185737 0.9360181780346502 Z M -1.0777681367198388 0.6287502188227151 L -1.2586085881639018 0.5216566290355426 L -1.3429036648399553 0.5707988223679755 L -1.3446594625659332 0.5707988223679755 L -1.3552244634142163 0.5778119417744142 L -1.1691065472947477 0.6814342220995198 Z M -1.188403536451383 0.9360181780346502 L -1.188403536451383 0.7341081538788538 L -1.3639833090491609 0.8341953385912357 Z M -1.204262787804192 0.702493723313782 L -1.3780129050278629 0.6041522648299059 L -1.3780129050278629 0.8025607650312183 Z M -0.5492797355321758 0.5233889266007523 L -0.7335881392724817 0.6340209691664725 L -0.6423135148482297 0.6867049724432779 L -0.4526571459502132 0.5796113826561053 Z M -0.7547080694715758 0.6621003041188215 L -0.7547080694715758 0.8798460794666576 L -0.6581123372162057 0.9360181780346502 L -0.6581123372162057 0.7183361888374705 Z M -0.7898374526544274 0.8605356616467261 L -0.7898374526544274 0.6427865291330651 L -0.8863861845882608 0.5866177877308967 L -0.8881889826357754 0.8025641221970431 Z M -0.7687712371085181 0.6147105513465417 L -0.5843923328859072 0.5040583657858766 L -0.6827572915305513 0.44617075548179513 L -0.8706075052152293 0.5550033571658248 Z M -0.43516631200691636 0.6094196580078394 L -0.6072579893135068 0.7077846166524836 L -0.43516631200691636 0.8078684441990408 Z M -0.6230333115207145 0.7393856185542593 L -0.6230333115207145 0.9360181780346502 L -0.45095506287742027 0.8377337913697827 Z M -1.1111182220159443 0.26178849409335925 L -0.9232478653363221 0.36714978631532197 L -0.9232478653363221 0.26178849409335925 L -1.1111182220159443 0.14939729663583773 Z M -0.8881621253091829 0.370621095777389 L -0.7002414111422 0.26178849409335925 L -0.7002414111422 0.149397296635837 L -0.8881621253091829 0.25823325548569076 Z M -0.7002414111422 0.30216512745919966 L -0.8881621253091829 0.41099772914322863 L -0.8881621253091829 0.5251917246482654 L -0.7002414111422 0.41629197964775433 Z M -0.9232478653363221 0.4057739791210091 L -1.1111182220159443 0.3021651274592004 L -1.1111182220159443 0.4163087654768759 L -0.9232478653363221 0.5252085104773869 Z M -1.0953462569745607 0.11951852080179762 L -0.9232478653363221 0.22139171773257393 L -0.9232478653363221 0.021240848468579626 Z M -0.8881621253091829 0.2178532649540256 L -0.7178698888842827 0.11951852080179762 L -0.8881621253091829 0.021240848468578905 Z M -0.9056865309107203 0.8324395408652571 L -1.1198972106458331 0.9571280367362721 L -1.1374753309005552 0.9658935967028656 L -0.9056865309107203 1.0993308667113524 L -0.6739682314031903 0.9658935967028656 Z M -1.3780397623544551 0.5497258924904186 L -1.3605119995870938 0.5409603325238252 L -1.3605119995870938 0.5409603325238252 L -1.1463248200127492 0.416288622481931 L -1.1463248200127492 0.14939393947001298 L -1.3780129050278629 0.28283792381014794 Z M -0.6652194572657179 0.416288622481931 L -0.45095842004324427 0.5409603325238252 L -0.4351797406702127 0.5497258924904186 L -0.4351797406702127 0.2828312094784999 L -0.6652295287631901 0.14939058230418895 Z" fill="url(#iconColor_0)" transform="matrix(1,0,0,1,0,0)" fill-rule="evenodd"></path></g></g></g><defs><clipPath id="SvgjsClipPath1018"><path d=" M -1.4113764189872646 -0.02708891073443409 h 1.0113764189872647 v 1.164177821468868 h -1.0113764189872647 Z"></path></clipPath><clipPath id="SvgjsClipPath1008"><path d=" M -1.4113764189872646 -0.02708891073443409 L -0.3999999999999999 -0.02708891073443409 L -0.3999999999999999 1.137088910734434 L -1.4113764189872646 1.137088910734434 Z"></path></clipPath><linearGradient id="iconColor_0" x1="0" x2="1" y1="0" y2="1"><stop stop-color="#eda0a0" offset="0"></stop><stop stop-color="#102036" offset="1"></stop></linearGradient></defs></svg>