<svg width="40" height="40" viewBox="0 0 40 40" fill="none" xmlns="http://www.w3.org/2000/svg">
<path d="M34.3112 9.82439C29.6548 6.34039 25.194 6.43799 25.194 6.43799L24.738 6.95879C30.2736 8.61959 32.846 11.0616 32.846 11.0616C24.9264 6.70119 14.8384 6.73239 6.60083 11.0616C6.60083 11.0616 9.27083 8.48919 15.132 6.82839L14.8064 6.43759C14.8064 6.43759 10.378 6.33999 5.68923 9.82399C5.68923 9.82399 1.00043 18.2576 1.00043 28.6448C1.00043 28.6448 3.73563 33.3336 10.932 33.5616C10.932 33.5616 12.1368 32.1288 13.1136 30.8916C8.97803 29.6544 7.41523 27.082 7.41523 27.082C10.0132 28.7076 12.6404 29.7252 15.914 30.3708C21.2404 31.4672 27.8656 30.34 32.8136 27.082C32.8136 27.082 31.1856 29.7196 26.92 30.9244C27.8968 32.1292 29.0692 33.5292 29.0692 33.5292C36.2648 33.3016 39 28.6128 39 28.6452C39 18.258 34.3112 9.82439 34.3112 9.82439ZM13.9272 25.6172C12.1036 25.6172 10.606 24.0216 10.606 22.0352C10.7392 17.2784 17.1488 17.2932 17.2488 22.0352C17.2484 24.0216 15.7832 25.6172 13.9272 25.6172ZM25.8124 25.6172C23.9888 25.6172 22.4912 24.0216 22.4912 22.0352C22.6376 17.2876 28.9672 17.2856 29.134 22.0352C29.1336 24.0216 27.6684 25.6172 25.8124 25.6172Z" fill="black"/>
</svg>
