<svg width="26" height="26" viewBox="0 0 26 26" fill="none" xmlns="http://www.w3.org/2000/svg">
<path d="M13 2.43393C10.4276 2.43404 7.93916 3.34947 5.97995 5.01643C4.02075 6.68339 2.71861 8.9931 2.30655 11.5323C1.89448 14.0715 2.39937 16.6744 3.73088 18.8754C5.06239 21.0764 7.13362 22.7318 9.57397 23.5454C10.1156 23.6402 10.3188 23.3152 10.3188 23.0308C10.3188 22.7735 10.3052 21.9204 10.3052 21.0131C7.58332 21.5141 6.87916 20.3496 6.66249 19.7402C6.42207 19.1475 6.04095 18.6223 5.55207 18.21C5.17291 18.0068 4.63124 17.5058 5.53852 17.4923C5.88496 17.5299 6.21723 17.6504 6.50717 17.8437C6.79712 18.037 7.0362 18.2973 7.20416 18.6027C7.35232 18.8688 7.55156 19.1032 7.79044 19.2922C8.02933 19.4812 8.30317 19.6213 8.59627 19.7043C8.88938 19.7873 9.19598 19.8117 9.49852 19.776C9.80106 19.7404 10.0936 19.6453 10.3593 19.4964C10.4062 18.9457 10.6517 18.4307 11.05 18.0475C8.63957 17.7767 6.12082 16.8423 6.12082 12.6985C6.1056 11.6219 6.5029 10.5802 7.23124 9.78709C6.90004 8.85133 6.9388 7.82439 7.33957 6.91625C7.33957 6.91625 8.24683 6.63187 10.3187 8.02667C12.0914 7.53914 13.9628 7.53914 15.7354 8.02667C17.8073 6.61834 18.7146 6.91625 18.7146 6.91625C19.1154 7.82438 19.1542 8.85133 18.8229 9.78709C19.5534 10.5788 19.9511 11.6214 19.9333 12.6985C19.9333 16.8558 17.401 17.7767 14.9906 18.0475C15.2492 18.3095 15.4483 18.6242 15.5744 18.97C15.7006 19.3158 15.7509 19.6847 15.7219 20.0517C15.7219 21.5007 15.7083 22.6652 15.7083 23.0308C15.7083 23.3152 15.9114 23.6538 16.4531 23.5454C18.8892 22.7252 20.9544 21.0659 22.2803 18.8638C23.6061 16.6617 24.1062 14.0601 23.6913 11.5234C23.2764 8.98663 21.9734 6.67992 20.0151 5.01498C18.0567 3.35005 15.5704 2.43527 13 2.43393Z" fill="black"/>
</svg>
